<?xml version="1.0" encoding="UTF-8"?>
<mxfile modified="2019-07-28T22:46:43.046Z" host="www.draw.io" agent="Mozilla/5.0 (X11; Linux x86_64) AppleWebKit/537.36 (KHTML, like Gecko) Chrome/71.0.3578.98 Safari/537.36" etag="PBLo3UXANYflliY3brZL" version="11.0.7" type="device" compressed="false">
  <diagram id="-EkWDqT8_zHdAa4qSj4g" name="Page-1">
    <mxGraphModel dx="2591" dy="780" grid="1" gridSize="10" guides="1" tooltips="1" connect="1" arrows="1" fold="1" page="1" pageScale="1" pageWidth="1169" pageHeight="827" math="0" shadow="0">
      <root>
        <mxCell id="0"/>
        <mxCell id="1" parent="0"/>
        <mxCell id="4cV12LpfStALq5GrAtwr-19" value="" style="rounded=1;whiteSpace=wrap;html=1;strokeColor=#000000;strokeWidth=1;fillColor=none;gradientColor=none;" parent="1" vertex="1">
          <mxGeometry x="560" y="120" width="480" height="220" as="geometry"/>
        </mxCell>
        <mxCell id="4cV12LpfStALq5GrAtwr-18" value="" style="rounded=1;whiteSpace=wrap;html=1;strokeColor=#000000;strokeWidth=1;fillColor=none;gradientColor=none;" parent="1" vertex="1">
          <mxGeometry x="-120" y="359" width="960" height="401" as="geometry"/>
        </mxCell>
        <mxCell id="7oYHAmMs0CYWIyA3wzQr-100" style="edgeStyle=elbowEdgeStyle;rounded=0;orthogonalLoop=1;jettySize=auto;html=1;entryX=0.5;entryY=0;entryDx=0;entryDy=0;entryPerimeter=0;endArrow=none;endFill=0;fontSize=14;fontColor=#FF8000;" parent="1" target="7oYHAmMs0CYWIyA3wzQr-18" edge="1">
          <mxGeometry relative="1" as="geometry">
            <mxPoint x="356" y="250" as="sourcePoint"/>
          </mxGeometry>
        </mxCell>
        <mxCell id="7oYHAmMs0CYWIyA3wzQr-111" value="&lt;span style=&quot;text-align: left ; background-color: rgb(248 , 249 , 250)&quot;&gt;&lt;b&gt;eth3&amp;nbsp;&lt;/b&gt;&lt;font color=&quot;#000000&quot;&gt;192.168.2.65/28&lt;/font&gt;&lt;/span&gt;" style="text;html=1;resizable=0;points=[];align=center;verticalAlign=middle;labelBackgroundColor=#ffffff;fontSize=14;fontColor=#FF8000;" parent="7oYHAmMs0CYWIyA3wzQr-100" vertex="1" connectable="0">
          <mxGeometry x="-0.92" relative="1" as="geometry">
            <mxPoint y="-2" as="offset"/>
          </mxGeometry>
        </mxCell>
        <mxCell id="7oYHAmMs0CYWIyA3wzQr-112" style="edgeStyle=none;rounded=0;orthogonalLoop=1;jettySize=auto;html=1;exitX=1;exitY=0.5;exitDx=0;exitDy=0;exitPerimeter=0;entryX=0;entryY=0.5;entryDx=0;entryDy=0;entryPerimeter=0;endArrow=none;endFill=0;fontSize=14;fontColor=#FF8000;" parent="1" source="7oYHAmMs0CYWIyA3wzQr-8" target="7oYHAmMs0CYWIyA3wzQr-102" edge="1">
          <mxGeometry relative="1" as="geometry"/>
        </mxCell>
        <mxCell id="7oYHAmMs0CYWIyA3wzQr-123" value="&lt;span style=&quot;color: rgb(0 , 0 , 0) ; font-family: &amp;#34;helvetica&amp;#34; , &amp;#34;arial&amp;#34; , sans-serif ; font-size: 0px ; background-color: rgb(248 , 249 , 250)&quot;&gt;%3CmxGraphModel%3E%3Croot%3E%3CmxCell%20id%3D%220%22%2F%3E%3CmxCell%20id%3D%221%22%20parent%3D%220%22%2F%3E%3CmxCell%20id%3D%222%22%20value%3D%22%26lt%3Bspan%20style%3D%26quot%3Bfont-weight%3A%20700%26quot%3B%26gt%3Brouter-net%26lt%3B%2Fspan%26gt%3B%22%20style%3D%22text%3Bhtml%3D1%3Bresizable%3D0%3Bpoints%3D%5B%5D%3Balign%3Dcenter%3BverticalAlign%3Dmiddle%3BlabelBackgroundColor%3D%23ffffff%3BfontSize%3D14%3BfontColor%3D%23FF8000%3B%22%20vertex%3D%221%22%20connectable%3D%220%22%20parent%3D%221%22%3E%3CmxGeometry%20x%3D%22356.3333333333335%22%20y%3D%22421.33333333333326%22%20as%3D%22geometry%22%3E%3CmxPoint%20y%3D%221%22%20as%3D%22offset%22%2F%3E%3C%2FmxGeometry%3E%3C%2FmxCell%3E%3C%2Froot%3E%3C%2FmxGraphModel%3E&lt;/span&gt;" style="text;html=1;resizable=0;points=[];align=center;verticalAlign=middle;labelBackgroundColor=#ffffff;fontSize=14;fontColor=#FF8000;" parent="7oYHAmMs0CYWIyA3wzQr-112" vertex="1" connectable="0">
          <mxGeometry x="0.071" y="7" relative="1" as="geometry">
            <mxPoint as="offset"/>
          </mxGeometry>
        </mxCell>
        <mxCell id="4cV12LpfStALq5GrAtwr-2" style="edgeStyle=none;rounded=0;orthogonalLoop=1;jettySize=auto;html=1;exitX=1;exitY=0.5;exitDx=0;exitDy=0;exitPerimeter=0;entryX=0;entryY=0.5;entryDx=0;entryDy=0;entryPerimeter=0;endArrow=none;endFill=0;" parent="1" source="7oYHAmMs0CYWIyA3wzQr-8" target="4cV12LpfStALq5GrAtwr-1" edge="1">
          <mxGeometry relative="1" as="geometry"/>
        </mxCell>
        <mxCell id="7oYHAmMs0CYWIyA3wzQr-8" value="" style="shape=mxgraph.cisco.routers.router;html=1;dashed=0;fillColor=#036897;strokeColor=#ffffff;strokeWidth=2;verticalLabelPosition=bottom;verticalAlign=top" parent="1" vertex="1">
          <mxGeometry x="297" y="187" width="123" height="63" as="geometry"/>
        </mxCell>
        <object label="&lt;font style=&quot;font-size: 16px&quot;&gt;testServer1&lt;/font&gt;" eth0="" eth1="" placeholders="1" id="7oYHAmMs0CYWIyA3wzQr-10">
          <mxCell style="pointerEvents=1;shadow=0;dashed=0;html=1;strokeColor=none;labelPosition=center;verticalLabelPosition=bottom;verticalAlign=top;outlineConnect=0;align=center;shape=mxgraph.office.servers.server_generic;fillColor=#7FBA42;" parent="1" vertex="1">
            <mxGeometry x="40.5" y="400" width="85" height="160" as="geometry"/>
          </mxCell>
        </object>
        <mxCell id="7oYHAmMs0CYWIyA3wzQr-16" value="&lt;font style=&quot;font-size: 16px&quot;&gt;testClient2&lt;/font&gt;" style="shape=mxgraph.signs.tech.computer;html=1;fillColor=#000000;strokeColor=none;verticalLabelPosition=bottom;verticalAlign=top;align=center;" parent="1" vertex="1">
          <mxGeometry x="597" y="638" width="83" height="80" as="geometry"/>
        </mxCell>
        <mxCell id="7oYHAmMs0CYWIyA3wzQr-30" style="edgeStyle=none;rounded=0;orthogonalLoop=1;jettySize=auto;html=1;endArrow=none;endFill=0;exitX=0.16;exitY=0.23;exitDx=0;exitDy=0;exitPerimeter=0;entryX=1;entryY=0.5;entryDx=0;entryDy=0;entryPerimeter=0;" parent="1" source="7oYHAmMs0CYWIyA3wzQr-18" target="7oYHAmMs0CYWIyA3wzQr-10" edge="1">
          <mxGeometry relative="1" as="geometry"/>
        </mxCell>
        <mxCell id="7oYHAmMs0CYWIyA3wzQr-31" style="edgeStyle=none;rounded=0;orthogonalLoop=1;jettySize=auto;html=1;exitX=0;exitY=0.98;exitDx=0;exitDy=0;exitPerimeter=0;entryX=0.922;entryY=0.35;entryDx=0;entryDy=0;entryPerimeter=0;endArrow=none;endFill=0;" parent="1" source="7oYHAmMs0CYWIyA3wzQr-18" target="7oYHAmMs0CYWIyA3wzQr-40" edge="1">
          <mxGeometry relative="1" as="geometry"/>
        </mxCell>
        <mxCell id="7oYHAmMs0CYWIyA3wzQr-41" value="&lt;font style=&quot;font-size: 14px ; background-color: rgb(255 , 255 , 255)&quot;&gt;&lt;font color=&quot;#ff8000&quot; style=&quot;font-weight: bold&quot;&gt;eth1&lt;/font&gt;&lt;font color=&quot;#994c00&quot; style=&quot;font-weight: bold&quot;&gt; &lt;/font&gt;192.168.2.68/28&lt;/font&gt;" style="text;html=1;resizable=0;points=[];align=center;verticalAlign=middle;labelBackgroundColor=#ffffff;" parent="7oYHAmMs0CYWIyA3wzQr-31" vertex="1" connectable="0">
          <mxGeometry x="0.6733" y="2" relative="1" as="geometry">
            <mxPoint x="49.5" y="21.5" as="offset"/>
          </mxGeometry>
        </mxCell>
        <mxCell id="7oYHAmMs0CYWIyA3wzQr-45" value="&lt;span style=&quot;font-family: &amp;#34;helvetica&amp;#34; , &amp;#34;arial&amp;#34; , sans-serif ; font-size: 0px ; background-color: rgb(248 , 249 , 250)&quot;&gt;%3CmxGraphModel%3E%3Croot%3E%3CmxCell%20id%3D%220%22%2F%3E%3CmxCell%20id%3D%221%22%20parent%3D%220%22%2F%3E%3CmxCell%20id%3D%222%22%20value%3D%22%26lt%3Bfont%20style%3D%26quot%3Bfont-size%3A%2014px%26quot%3B%26gt%3Beth1%3A%20192.168.244.5%26lt%3B%2Ffont%26gt%3B%22%20style%3D%22text%3Bhtml%3D1%3Bresizable%3D0%3Bpoints%3D%5B%5D%3Balign%3Dcenter%3BverticalAlign%3Dmiddle%3BlabelBackgroundColor%3D%23ffffff%3B%22%20vertex%3D%221%22%20connectable%3D%220%22%20parent%3D%221%22%3E%3CmxGeometry%20x%3D%22162.34166454471574%22%20y%3D%22702.7874865341037%22%20as%3D%22geometry%22%3E%3CmxPoint%20x%3D%2212%22%20y%3D%22-11%22%20as%3D%22offset%22%2F%3E%3C%2FmxGeometry%3E%3C%2FmxCell%3E%3C%2Froot%3E%3C%2FmxGraphModel%3E&lt;/span&gt;" style="text;html=1;resizable=0;points=[];align=center;verticalAlign=middle;labelBackgroundColor=#ffffff;" parent="7oYHAmMs0CYWIyA3wzQr-31" vertex="1" connectable="0">
          <mxGeometry x="-0.6634" y="1" relative="1" as="geometry">
            <mxPoint x="-1" as="offset"/>
          </mxGeometry>
        </mxCell>
        <mxCell id="7oYHAmMs0CYWIyA3wzQr-76" style="edgeStyle=none;rounded=0;orthogonalLoop=1;jettySize=auto;html=1;exitX=1;exitY=0.131;exitDx=0;exitDy=0;exitPerimeter=0;endArrow=none;endFill=0;fontSize=14;fontColor=#FF8000;entryX=0.925;entryY=1.2;entryDx=0;entryDy=0;entryPerimeter=0;" parent="1" source="7oYHAmMs0CYWIyA3wzQr-18" target="7oYHAmMs0CYWIyA3wzQr-77" edge="1">
          <mxGeometry relative="1" as="geometry"/>
        </mxCell>
        <mxCell id="TLxCQrBrDgR7e8rWQijt-10" style="edgeStyle=none;rounded=0;orthogonalLoop=1;jettySize=auto;html=1;exitX=0;exitY=0.5;exitDx=0;exitDy=0;exitPerimeter=0;entryX=0.721;entryY=1;entryDx=0;entryDy=0;entryPerimeter=0;endArrow=none;endFill=0;" parent="1" source="7oYHAmMs0CYWIyA3wzQr-18" target="7oYHAmMs0CYWIyA3wzQr-91" edge="1">
          <mxGeometry relative="1" as="geometry"/>
        </mxCell>
        <mxCell id="TLxCQrBrDgR7e8rWQijt-11" style="edgeStyle=none;rounded=0;orthogonalLoop=1;jettySize=auto;html=1;entryX=0.3;entryY=1.1;entryDx=0;entryDy=0;entryPerimeter=0;endArrow=none;endFill=0;exitX=0.98;exitY=0.5;exitDx=0;exitDy=0;exitPerimeter=0;" parent="1" source="7oYHAmMs0CYWIyA3wzQr-18" target="7oYHAmMs0CYWIyA3wzQr-116" edge="1">
          <mxGeometry relative="1" as="geometry">
            <mxPoint x="410" y="560" as="sourcePoint"/>
          </mxGeometry>
        </mxCell>
        <mxCell id="TLxCQrBrDgR7e8rWQijt-18" value="&lt;font color=&quot;#FF8000&quot;&gt;VLAN 2&lt;/font&gt;" style="text;html=1;resizable=0;points=[];align=center;verticalAlign=middle;labelBackgroundColor=#ffffff;" parent="TLxCQrBrDgR7e8rWQijt-11" vertex="1" connectable="0">
          <mxGeometry x="-0.5749" relative="1" as="geometry">
            <mxPoint x="-5" y="2" as="offset"/>
          </mxGeometry>
        </mxCell>
        <mxCell id="TLxCQrBrDgR7e8rWQijt-14" style="edgeStyle=none;rounded=0;orthogonalLoop=1;jettySize=auto;html=1;entryX=0.743;entryY=-0.1;entryDx=0;entryDy=0;entryPerimeter=0;endArrow=none;endFill=0;exitX=-0.008;exitY=0.623;exitDx=0;exitDy=0;exitPerimeter=0;" parent="1" source="7oYHAmMs0CYWIyA3wzQr-18" target="7oYHAmMs0CYWIyA3wzQr-96" edge="1">
          <mxGeometry relative="1" as="geometry"/>
        </mxCell>
        <mxCell id="TLxCQrBrDgR7e8rWQijt-17" value="&lt;font color=&quot;#FF8000&quot;&gt;VLAN 1&lt;/font&gt;" style="text;html=1;resizable=0;points=[];align=center;verticalAlign=middle;labelBackgroundColor=#ffffff;" parent="TLxCQrBrDgR7e8rWQijt-14" vertex="1" connectable="0">
          <mxGeometry x="-0.4174" y="1" relative="1" as="geometry">
            <mxPoint x="14" y="-5" as="offset"/>
          </mxGeometry>
        </mxCell>
        <mxCell id="TLxCQrBrDgR7e8rWQijt-15" style="edgeStyle=none;rounded=0;orthogonalLoop=1;jettySize=auto;html=1;exitX=0.87;exitY=0.74;exitDx=0;exitDy=0;exitPerimeter=0;endArrow=none;endFill=0;" parent="1" source="7oYHAmMs0CYWIyA3wzQr-18" edge="1">
          <mxGeometry relative="1" as="geometry">
            <mxPoint x="710" y="665" as="targetPoint"/>
          </mxGeometry>
        </mxCell>
        <mxCell id="TLxCQrBrDgR7e8rWQijt-19" value="&lt;font color=&quot;#FF8000&quot;&gt;VLAN 2&lt;/font&gt;" style="text;html=1;resizable=0;points=[];align=center;verticalAlign=middle;labelBackgroundColor=#ffffff;" parent="TLxCQrBrDgR7e8rWQijt-15" vertex="1" connectable="0">
          <mxGeometry x="-0.5474" relative="1" as="geometry">
            <mxPoint x="6" y="3" as="offset"/>
          </mxGeometry>
        </mxCell>
        <mxCell id="7oYHAmMs0CYWIyA3wzQr-18" value="" style="shape=mxgraph.cisco.switches.workgroup_switch;html=1;dashed=0;fillColor=#036897;strokeColor=#ffffff;strokeWidth=2;verticalLabelPosition=bottom;verticalAlign=top" parent="1" vertex="1">
          <mxGeometry x="291" y="519.5" width="131" height="65" as="geometry"/>
        </mxCell>
        <object label="&lt;font style=&quot;font-size: 16px&quot;&gt;testServer2&lt;/font&gt;" eth0="" eth1="" placeholders="1" id="7oYHAmMs0CYWIyA3wzQr-32">
          <mxCell style="pointerEvents=1;shadow=0;dashed=0;html=1;strokeColor=none;labelPosition=center;verticalLabelPosition=bottom;verticalAlign=top;outlineConnect=0;align=center;shape=mxgraph.office.servers.server_generic;fillColor=#7FBA42;" parent="1" vertex="1">
            <mxGeometry x="600" y="400" width="80" height="160" as="geometry"/>
          </mxCell>
        </object>
        <mxCell id="7oYHAmMs0CYWIyA3wzQr-35" style="edgeStyle=none;rounded=0;orthogonalLoop=1;jettySize=auto;html=1;endArrow=none;endFill=0;exitX=0.763;exitY=1.008;exitDx=0;exitDy=0;exitPerimeter=0;entryX=0;entryY=0.5;entryDx=0;entryDy=0;entryPerimeter=0;" parent="1" source="7oYHAmMs0CYWIyA3wzQr-18" target="7oYHAmMs0CYWIyA3wzQr-16" edge="1">
          <mxGeometry relative="1" as="geometry">
            <mxPoint x="435" y="562" as="sourcePoint"/>
            <mxPoint x="520" y="678" as="targetPoint"/>
          </mxGeometry>
        </mxCell>
        <mxCell id="7oYHAmMs0CYWIyA3wzQr-61" value="&lt;span style=&quot;color: rgb(0 , 0 , 0) ; font-family: &amp;#34;helvetica&amp;#34; , &amp;#34;arial&amp;#34; , sans-serif ; font-size: 0px ; background-color: rgb(248 , 249 , 250)&quot;&gt;%3CmxGraphModel%3E%3Croot%3E%3CmxCell%20id%3D%220%22%2F%3E%3CmxCell%20id%3D%221%22%20parent%3D%220%22%2F%3E%3CmxCell%20id%3D%222%22%20value%3D%22router-net%22%20style%3D%22text%3Bhtml%3D1%3Bresizable%3D0%3Bpoints%3D%5B%5D%3Balign%3Dcenter%3BverticalAlign%3Dmiddle%3BlabelBackgroundColor%3D%23ffffff%3BfontColor%3D%23994C00%3BfontStyle%3D1%3BfontSize%3D14%3B%22%20vertex%3D%221%22%20connectable%3D%220%22%20parent%3D%221%22%3E%3CmxGeometry%20x%3D%22240.31510674251513%22%20y%3D%22680.2497510846242%22%20as%3D%22geometry%22%3E%3CmxPoint%20as%3D%22offset%22%2F%3E%3C%2FmxGeometry%3E%3C%2FmxCell%3E%3C%2Froot%3E%3C%2FmxGraphModel%3Er&lt;/span&gt;" style="text;html=1;resizable=0;points=[];align=center;verticalAlign=middle;labelBackgroundColor=#ffffff;fontSize=14;fontColor=#994C00;" parent="7oYHAmMs0CYWIyA3wzQr-35" vertex="1" connectable="0">
          <mxGeometry x="-0.6714" relative="1" as="geometry">
            <mxPoint as="offset"/>
          </mxGeometry>
        </mxCell>
        <mxCell id="7oYHAmMs0CYWIyA3wzQr-40" value="&lt;font style=&quot;font-size: 16px ; font-weight: normal&quot;&gt;testClient1&lt;/font&gt;" style="shape=mxgraph.signs.tech.computer;html=1;fillColor=#000000;strokeColor=none;verticalLabelPosition=bottom;verticalAlign=top;align=center;fontStyle=1" parent="1" vertex="1">
          <mxGeometry x="41.5" y="641" width="83" height="80" as="geometry"/>
        </mxCell>
        <mxCell id="7oYHAmMs0CYWIyA3wzQr-64" value="&lt;font style=&quot;font-size: 14px ; background-color: rgb(255 , 255 , 255)&quot;&gt;&lt;font color=&quot;#ff8000&quot; style=&quot;font-weight: bold&quot;&gt;eth1&lt;/font&gt;&lt;font color=&quot;#cc6600&quot; style=&quot;font-weight: bold&quot;&gt; &lt;/font&gt;192.168.2.71/28&lt;/font&gt;" style="text;html=1;resizable=0;points=[];align=center;verticalAlign=middle;labelBackgroundColor=#ffffff;" parent="1" vertex="1" connectable="0">
          <mxGeometry x="194.2445581467241" y="455.8604857577095" as="geometry">
            <mxPoint x="7" y="14" as="offset"/>
          </mxGeometry>
        </mxCell>
        <mxCell id="7oYHAmMs0CYWIyA3wzQr-71" value="&lt;span style=&quot;background-color: rgb(255 , 255 , 255)&quot;&gt;&lt;span style=&quot;color: rgb(0 , 0 , 0) ; text-align: center&quot;&gt;192.168.2.69/28&lt;b&gt;&amp;nbsp;&lt;/b&gt;&lt;/span&gt;&lt;/span&gt;&lt;span style=&quot;font-weight: bold ; text-align: center ; background-color: rgb(255 , 255 , 255)&quot;&gt;eth1&lt;/span&gt;&lt;span style=&quot;font-weight: bold ; text-align: center ; background-color: rgb(255 , 255 , 255)&quot;&gt;&amp;nbsp;&lt;/span&gt;" style="text;html=1;resizable=0;points=[];autosize=1;align=left;verticalAlign=top;spacingTop=-4;fontSize=14;fontColor=#FF8000;" parent="1" vertex="1">
          <mxGeometry x="441" y="669" width="150" height="20" as="geometry"/>
        </mxCell>
        <mxCell id="7oYHAmMs0CYWIyA3wzQr-77" value="&lt;span style=&quot;background-color: rgb(255 , 255 , 255)&quot;&gt;&lt;span style=&quot;color: rgb(0 , 0 , 0) ; text-align: center&quot;&gt;192.168.2.72/28 &lt;/span&gt;&lt;span style=&quot;font-weight: bold ; text-align: center&quot;&gt;eth1&lt;/span&gt;&lt;/span&gt;" style="text;html=1;resizable=0;points=[];autosize=1;align=left;verticalAlign=top;spacingTop=-4;fontSize=14;fontColor=#FF8000;" parent="1" vertex="1">
          <mxGeometry x="462" y="459" width="150" height="20" as="geometry"/>
        </mxCell>
        <mxCell id="7oYHAmMs0CYWIyA3wzQr-91" value="&lt;span style=&quot;color: rgb(0 , 0 , 0) ; text-align: center ; background-color: rgb(255 , 255 , 255)&quot;&gt;&lt;b&gt;&amp;nbsp;&lt;/b&gt;10.10.10.1/24 &lt;/span&gt;&lt;span style=&quot;text-align: center ; background-color: rgb(255 , 255 , 255)&quot;&gt;&lt;b&gt;eth2.1&lt;/b&gt;&lt;/span&gt;" style="text;html=1;resizable=0;points=[];autosize=1;align=left;verticalAlign=top;spacingTop=-4;fontSize=14;fontColor=#FF8000;" parent="1" vertex="1">
          <mxGeometry x="-97" y="459" width="150" height="20" as="geometry"/>
        </mxCell>
        <mxCell id="7oYHAmMs0CYWIyA3wzQr-96" value="&lt;span style=&quot;color: rgb(0 , 0 , 0) ; text-align: center ; background-color: rgb(255 , 255 , 255)&quot;&gt;&amp;nbsp;10.10.10.254/24 &lt;/span&gt;&lt;span style=&quot;text-align: center ; background-color: rgb(255 , 255 , 255)&quot;&gt;&lt;b&gt;eth2.1&lt;/b&gt;&lt;/span&gt;" style="text;html=1;resizable=0;points=[];autosize=1;align=left;verticalAlign=top;spacingTop=-4;fontSize=14;fontColor=#FF8000;" parent="1" vertex="1">
          <mxGeometry x="-113.5" y="669" width="160" height="20" as="geometry"/>
        </mxCell>
        <mxCell id="7oYHAmMs0CYWIyA3wzQr-125" style="edgeStyle=elbowEdgeStyle;rounded=0;orthogonalLoop=1;jettySize=auto;html=1;exitX=0.12;exitY=0.1;exitDx=0;exitDy=0;exitPerimeter=0;entryX=0.88;entryY=0.1;entryDx=0;entryDy=0;entryPerimeter=0;endArrow=none;endFill=0;fontSize=14;fontColor=#FF8000;elbow=vertical;" parent="1" source="7oYHAmMs0CYWIyA3wzQr-102" target="7oYHAmMs0CYWIyA3wzQr-122" edge="1">
          <mxGeometry relative="1" as="geometry"/>
        </mxCell>
        <mxCell id="7oYHAmMs0CYWIyA3wzQr-133" style="edgeStyle=elbowEdgeStyle;rounded=0;orthogonalLoop=1;jettySize=auto;html=1;exitX=0.12;exitY=0.9;exitDx=0;exitDy=0;exitPerimeter=0;endArrow=none;endFill=0;fontSize=14;fontColor=#FF8000;elbow=vertical;entryX=0.88;entryY=0.9;entryDx=0;entryDy=0;entryPerimeter=0;" parent="1" source="7oYHAmMs0CYWIyA3wzQr-102" target="7oYHAmMs0CYWIyA3wzQr-122" edge="1">
          <mxGeometry relative="1" as="geometry">
            <mxPoint x="-578" y="249" as="targetPoint"/>
          </mxGeometry>
        </mxCell>
        <mxCell id="7oYHAmMs0CYWIyA3wzQr-102" value="" style="shape=mxgraph.cisco.routers.router;html=1;dashed=0;fillColor=#036897;strokeColor=#ffffff;strokeWidth=2;verticalLabelPosition=bottom;verticalAlign=top" parent="1" vertex="1">
          <mxGeometry x="-200" y="187" width="123" height="63" as="geometry"/>
        </mxCell>
        <mxCell id="7oYHAmMs0CYWIyA3wzQr-103" value="&lt;font color=&quot;#000000&quot; style=&quot;font-size: 16px&quot;&gt;office1Router&lt;/font&gt;" style="text;html=1;resizable=0;points=[];autosize=1;align=left;verticalAlign=top;spacingTop=-4;fontSize=14;fontColor=#FF8000;" parent="1" vertex="1">
          <mxGeometry x="308.5" y="162" width="110" height="20" as="geometry"/>
        </mxCell>
        <mxCell id="7oYHAmMs0CYWIyA3wzQr-104" value="&lt;span style=&quot;color: rgb(0 , 0 , 0) ; font-size: 16px&quot;&gt;centralRouter&lt;/span&gt;" style="text;html=1;resizable=0;points=[];autosize=1;align=left;verticalAlign=top;spacingTop=-4;fontSize=14;fontColor=#FF8000;" parent="1" vertex="1">
          <mxGeometry x="-187" y="162" width="110" height="20" as="geometry"/>
        </mxCell>
        <mxCell id="7oYHAmMs0CYWIyA3wzQr-115" value="&lt;b style=&quot;text-align: center&quot;&gt;eth2.2&lt;/b&gt;&lt;span style=&quot;color: rgb(0 , 0 , 0) ; text-align: center ; background-color: rgb(255 , 255 , 255)&quot;&gt;&lt;b&gt;&amp;nbsp;&lt;/b&gt;10.10.10.254/24&lt;/span&gt;" style="text;html=1;resizable=0;points=[];autosize=1;align=left;verticalAlign=top;spacingTop=-4;fontSize=14;fontColor=#FF8000;" parent="1" vertex="1">
          <mxGeometry x="683" y="667" width="160" height="20" as="geometry"/>
        </mxCell>
        <mxCell id="7oYHAmMs0CYWIyA3wzQr-116" value="&lt;b style=&quot;text-align: center&quot;&gt;eth2.2&lt;/b&gt;&lt;span style=&quot;color: rgb(0 , 0 , 0) ; text-align: center ; background-color: rgb(255 , 255 , 255)&quot;&gt;&lt;b&gt;&amp;nbsp;&lt;/b&gt;10.10.10.1/24&lt;/span&gt;" style="text;html=1;resizable=0;points=[];autosize=1;align=left;verticalAlign=top;spacingTop=-4;fontSize=14;fontColor=#FF8000;" parent="1" vertex="1">
          <mxGeometry x="681" y="459" width="150" height="20" as="geometry"/>
        </mxCell>
        <mxCell id="7oYHAmMs0CYWIyA3wzQr-117" value="&lt;b&gt;eth2&lt;/b&gt;&amp;nbsp;&lt;font color=&quot;#000000&quot;&gt;192.168.254.1/30&lt;/font&gt;" style="text;html=1;resizable=0;points=[];autosize=1;align=left;verticalAlign=top;spacingTop=-4;fontSize=14;fontColor=#FF8000;" parent="1" vertex="1">
          <mxGeometry x="-74" y="197.5" width="160" height="20" as="geometry"/>
        </mxCell>
        <mxCell id="7oYHAmMs0CYWIyA3wzQr-119" value="&amp;nbsp;&lt;font color=&quot;#000000&quot;&gt;192.168.254.2/30&amp;nbsp;&lt;/font&gt;&lt;b&gt;eth1&lt;/b&gt;" style="text;html=1;resizable=0;points=[];autosize=1;align=left;verticalAlign=top;spacingTop=-4;fontSize=14;fontColor=#FF8000;" parent="1" vertex="1">
          <mxGeometry x="143" y="198" width="170" height="20" as="geometry"/>
        </mxCell>
        <mxCell id="7oYHAmMs0CYWIyA3wzQr-122" value="" style="shape=mxgraph.cisco.routers.router;html=1;dashed=0;fillColor=#036897;strokeColor=#ffffff;strokeWidth=2;verticalLabelPosition=bottom;verticalAlign=top" parent="1" vertex="1">
          <mxGeometry x="-714" y="186" width="123" height="63" as="geometry"/>
        </mxCell>
        <mxCell id="7oYHAmMs0CYWIyA3wzQr-126" value="&lt;span style=&quot;color: rgb(0 , 0 , 0) ; font-size: 16px&quot;&gt;inetRouter&lt;/span&gt;" style="text;html=1;resizable=0;points=[];autosize=1;align=left;verticalAlign=top;spacingTop=-4;fontSize=14;fontColor=#FF8000;" parent="1" vertex="1">
          <mxGeometry x="-693.5" y="161" width="90" height="20" as="geometry"/>
        </mxCell>
        <mxCell id="7oYHAmMs0CYWIyA3wzQr-131" value="&amp;nbsp;&lt;font color=&quot;#000000&quot;&gt;bond0 slave 1&amp;nbsp;&lt;/font&gt;&lt;b&gt;eth1&lt;/b&gt;" style="text;html=1;fontSize=14;fontColor=#FF8000;" parent="1" vertex="1">
          <mxGeometry x="-328" y="168" width="131" height="30" as="geometry"/>
        </mxCell>
        <mxCell id="7oYHAmMs0CYWIyA3wzQr-134" value="&amp;nbsp;&lt;font color=&quot;#000000&quot;&gt;bond0 slave 2&amp;nbsp;&lt;/font&gt;&lt;b&gt;eth7&lt;/b&gt;" style="text;html=1;resizable=0;points=[];autosize=1;align=left;verticalAlign=top;spacingTop=-4;fontSize=14;fontColor=#FF8000;" parent="1" vertex="1">
          <mxGeometry x="-329" y="244" width="140" height="20" as="geometry"/>
        </mxCell>
        <mxCell id="7oYHAmMs0CYWIyA3wzQr-135" value="&lt;font color=&quot;#000000&quot;&gt;192.168.255.2/30&amp;nbsp;&lt;/font&gt;&lt;b&gt;bond0&lt;/b&gt;" style="text;html=1;resizable=0;points=[];autosize=1;align=left;verticalAlign=top;spacingTop=-4;fontSize=14;fontColor=#FF8000;" parent="1" vertex="1">
          <mxGeometry x="-365" y="209" width="170" height="20" as="geometry"/>
        </mxCell>
        <mxCell id="7oYHAmMs0CYWIyA3wzQr-138" value="&lt;b&gt;eth1&lt;/b&gt;&amp;nbsp;&lt;font color=&quot;#000000&quot;&gt;bond0 slave 1&lt;/font&gt;" style="text;html=1;resizable=0;points=[];autosize=1;align=left;verticalAlign=top;spacingTop=-4;fontSize=14;fontColor=#FF8000;" parent="1" vertex="1">
          <mxGeometry x="-592.5" y="173" width="140" height="20" as="geometry"/>
        </mxCell>
        <mxCell id="7oYHAmMs0CYWIyA3wzQr-139" value="&lt;b&gt;eth2&lt;/b&gt;&amp;nbsp;&lt;font color=&quot;#000000&quot;&gt;bond0 slave 2&lt;/font&gt;" style="text;html=1;resizable=0;points=[];autosize=1;align=left;verticalAlign=top;spacingTop=-4;fontSize=14;fontColor=#FF8000;" parent="1" vertex="1">
          <mxGeometry x="-595" y="244" width="140" height="20" as="geometry"/>
        </mxCell>
        <mxCell id="7oYHAmMs0CYWIyA3wzQr-140" value="&lt;b&gt;bond0&amp;nbsp;&lt;/b&gt;&lt;font color=&quot;#000000&quot;&gt;192.168.255.1/30&lt;/font&gt;" style="text;html=1;resizable=0;points=[];autosize=1;align=left;verticalAlign=top;spacingTop=-4;fontSize=14;fontColor=#FF8000;" parent="1" vertex="1">
          <mxGeometry x="-587" y="208.5" width="170" height="20" as="geometry"/>
        </mxCell>
        <mxCell id="7oYHAmMs0CYWIyA3wzQr-147" value="&lt;span style=&quot;color: rgb(0 , 0 , 0) ; font-family: &amp;#34;helvetica&amp;#34; , &amp;#34;arial&amp;#34; , sans-serif ; font-size: 0px&quot;&gt;%3CmxGraphModel%3E%3Croot%3E%3CmxCell%20id%3D%220%22%2F%3E%3CmxCell%20id%3D%221%22%20parent%3D%220%22%2F%3E%3Cobject%20label%3D%22%26lt%3Bfont%20style%3D%26quot%3Bfont-size%3A%2016px%26quot%3B%26gt%3BtestServer2%26lt%3B%2Ffont%26gt%3B%22%20eth0%3D%22%22%20eth1%3D%22%22%20placeholders%3D%221%22%20id%3D%222%22%3E%3CmxCell%20style%3D%22pointerEvents%3D1%3Bshadow%3D0%3Bdashed%3D0%3Bhtml%3D1%3BstrokeColor%3Dnone%3BlabelPosition%3Dcenter%3BverticalLabelPosition%3Dbottom%3BverticalAlign%3Dtop%3BoutlineConnect%3D0%3Balign%3Dcenter%3Bshape%3Dmxgraph.office.servers.server_generic%3BfillColor%3D%237FBA42%3B%22%20vertex%3D%221%22%20parent%3D%221%22%3E%3CmxGeometry%20x%3D%22600%22%20y%3D%22480%22%20width%3D%2280%22%20height%3D%22160%22%20as%3D%22geometry%22%2F%3E%3C%2FmxCell%3E%3C%2Fobject%3E%3C%2Froot%3E%3C%2FmxGraphModel%3E&lt;/span&gt;" style="text;html=1;resizable=0;points=[];autosize=1;align=left;verticalAlign=top;spacingTop=-4;fontSize=14;fontColor=#FF8000;" parent="1" vertex="1">
          <mxGeometry x="830" y="208" width="20" height="20" as="geometry"/>
        </mxCell>
        <mxCell id="7oYHAmMs0CYWIyA3wzQr-149" style="edgeStyle=none;rounded=0;orthogonalLoop=1;jettySize=auto;html=1;endArrow=none;endFill=0;fontSize=14;fontColor=#FF8000;entryX=0.98;entryY=0.5;entryDx=0;entryDy=0;entryPerimeter=0;" parent="1" source="7oYHAmMs0CYWIyA3wzQr-148" target="4cV12LpfStALq5GrAtwr-1" edge="1">
          <mxGeometry relative="1" as="geometry">
            <mxPoint x="922" y="218" as="sourcePoint"/>
            <mxPoint x="762" y="320" as="targetPoint"/>
          </mxGeometry>
        </mxCell>
        <mxCell id="7oYHAmMs0CYWIyA3wzQr-151" value="&lt;b style=&quot;text-align: left ; background-color: rgb(248 , 249 , 250)&quot;&gt;eth2&amp;nbsp;&lt;/b&gt;&lt;font color=&quot;#000000&quot; style=&quot;text-align: left ; background-color: rgb(248 , 249 , 250)&quot;&gt;192.168.2.1/28&lt;/font&gt;&lt;span style=&quot;text-align: left ; background-color: rgb(248 , 249 , 250)&quot;&gt;&amp;nbsp;&lt;/span&gt;" style="text;html=1;resizable=0;points=[];align=center;verticalAlign=middle;labelBackgroundColor=#ffffff;fontSize=14;fontColor=#FF8000;" parent="7oYHAmMs0CYWIyA3wzQr-149" vertex="1" connectable="0">
          <mxGeometry x="0.8979" relative="1" as="geometry">
            <mxPoint x="-252" y="-10.5" as="offset"/>
          </mxGeometry>
        </mxCell>
        <object label="&lt;font style=&quot;font-size: 16px&quot;&gt;office1Server&lt;/font&gt;" eth0="" eth1="" placeholders="1" id="7oYHAmMs0CYWIyA3wzQr-148">
          <mxCell style="pointerEvents=1;shadow=0;dashed=0;html=1;strokeColor=none;labelPosition=center;verticalLabelPosition=bottom;verticalAlign=top;outlineConnect=0;align=center;shape=mxgraph.office.servers.server_generic;fillColor=#7FBA42;" parent="1" vertex="1">
            <mxGeometry x="921" y="138" width="80" height="160" as="geometry"/>
          </mxCell>
        </object>
        <mxCell id="7oYHAmMs0CYWIyA3wzQr-150" value="&lt;font color=&quot;#000000&quot;&gt;192.168.2.2/28&lt;/font&gt;&amp;nbsp;&lt;b&gt;eth1&lt;/b&gt;" style="text;html=1;fontSize=14;fontColor=#FF8000;" parent="1" vertex="1">
          <mxGeometry x="790" y="194" width="150" height="18" as="geometry"/>
        </mxCell>
        <mxCell id="TLxCQrBrDgR7e8rWQijt-16" value="&lt;font color=&quot;#FF8000&quot;&gt;VLAN 1&lt;/font&gt;" style="text;html=1;resizable=0;points=[];align=center;verticalAlign=middle;labelBackgroundColor=#ffffff;" parent="1" vertex="1" connectable="0">
          <mxGeometry x="234.11468146998186" y="541.1158768643907" as="geometry">
            <mxPoint x="-14" y="-5" as="offset"/>
          </mxGeometry>
        </mxCell>
        <mxCell id="4cV12LpfStALq5GrAtwr-1" value="" style="shape=mxgraph.cisco.switches.workgroup_switch;html=1;dashed=0;fillColor=#036897;strokeColor=#ffffff;strokeWidth=2;verticalLabelPosition=bottom;verticalAlign=top" parent="1" vertex="1">
          <mxGeometry x="601" y="186" width="131" height="65" as="geometry"/>
        </mxCell>
        <mxCell id="4cV12LpfStALq5GrAtwr-20" value="&lt;div style=&quot;background-color: rgb(255 , 255 , 255) ; font-family: &amp;#34;droid sans mono&amp;#34; , monospace , monospace , &amp;#34;droid sans fallback&amp;#34; ; line-height: 19px ; white-space: pre&quot;&gt;&lt;span style=&quot;color: rgb(0 , 153 , 0) ; font-family: &amp;#34;helvetica&amp;#34; ; font-size: 22px ; white-space: normal ; background-color: rgb(248 , 249 , 250)&quot;&gt;dev-net&lt;/span&gt;&lt;br&gt;&lt;/div&gt;" style="text;html=1;strokeColor=#d79b00;fillColor=#ffe6cc;align=center;verticalAlign=middle;whiteSpace=wrap;rounded=0;opacity=0;" parent="1" vertex="1">
          <mxGeometry x="700" y="138" width="200" height="20" as="geometry"/>
        </mxCell>
        <mxCell id="4cV12LpfStALq5GrAtwr-24" value="" style="endArrow=classic;startArrow=classic;html=1;strokeColor=#FF9933;strokeWidth=3;" parent="1" edge="1">
          <mxGeometry width="50" height="50" relative="1" as="geometry">
            <mxPoint x="760" y="667" as="sourcePoint"/>
            <mxPoint x="760" y="483" as="targetPoint"/>
          </mxGeometry>
        </mxCell>
        <mxCell id="4cV12LpfStALq5GrAtwr-25" value="" style="endArrow=classic;startArrow=classic;html=1;strokeColor=#FF9933;strokeWidth=3;" parent="1" edge="1">
          <mxGeometry width="50" height="50" relative="1" as="geometry">
            <mxPoint x="-40" y="667" as="sourcePoint"/>
            <mxPoint x="-40" y="483" as="targetPoint"/>
          </mxGeometry>
        </mxCell>
        <mxCell id="4cV12LpfStALq5GrAtwr-16" value="&lt;font style=&quot;font-size: 22px&quot; color=&quot;#009900&quot;&gt;testserver-net&lt;/font&gt;" style="text;html=1;strokeColor=none;fillColor=#ffffff;align=center;verticalAlign=middle;whiteSpace=wrap;rounded=0;gradientColor=none;" parent="1" vertex="1">
          <mxGeometry x="370" y="380" width="171" height="20" as="geometry"/>
        </mxCell>
      </root>
    </mxGraphModel>
  </diagram>
</mxfile>
